# xmcd CD database file
#
# Track frame offsets:
#	225
#	11053
#	24664
#	33575
#	52569
#	65244
#	78960
#	94770
#	104048
#	122115
#	133726
#	153533
#	164356
#	176634
#
# Disc length: 2499 seconds
#
# Revision: 0
# Processed by: cddbd v1.5.2PL0 Copyright (c) Steve Scherf et al.
# Submitted via: CDex 1.51
#
DISCID=bd09c00e
DTITLE=Unknown - Az ztichnou bile skaly 3
DYEAR=1996
DGENRE=Country
TTITLE0=Pojd devce
TTITLE1=Kdyz ohne zaplanou
TTITLE2=Na osade hrali
TTITLE3=Hvezdicka zbloudila
TTITLE4=Lakani
TTITLE5=Pampa
TTITLE6=Ja prijdu za tebou
TTITLE7=Prijd na chvili
TTITLE8=Chajda mala
TTITLE9=Kapitan
TTITLE10=Lovci bizonu
TTITLE11=Aljaska
TTITLE12=Shorty a Joe
TTITLE13=parta z rance Y
EXTD=YEAR: 1996
EXTT0=
EXTT1=
EXTT2=
EXTT3=
EXTT4=
EXTT5=
EXTT6=
EXTT7=
EXTT8=
EXTT9=
EXTT10=
EXTT11=
EXTT12=
EXTT13=
PLAYORDER=
